<?xml version="1.0" encoding="utf-8"?>
<!-- Generator: Adobe Illustrator 15.1.0, SVG Export Plug-In . SVG Version: 6.00 Build 0)  -->
<!DOCTYPE svg PUBLIC "-//W3C//DTD SVG 1.1//EN" "http://www.w3.org/Graphics/SVG/1.1/DTD/svg11.dtd">
<svg version="1.1" id="Layer_1" xmlns="http://www.w3.org/2000/svg" xmlns:xlink="http://www.w3.org/1999/xlink" x="0px" y="0px"
	 width="1792px" height="1792px" viewBox="0 0 1792 1792" enable-background="new 0 0 1792 1792" xml:space="preserve">
<path fill="#00004F" d="M1675,832c0,35.333-12.333,65.333-37,90l-651,652c-26,24.667-56.333,37-91,37c-35.333,0-65.333-12.333-90-37
	L155,922c-25.333-24-38-54-38-90c0-35.333,12.667-65.667,38-91l74-75c26-24.667,56.333-37,91-37c35.333,0,65.333,12.333,90,37
	l294,294V256c0-34.667,12.667-64.667,38-90s55.333-38,90-38h128c34.667,0,64.667,12.667,90,38s38,55.333,38,90v704l294-294
	c24.667-24.667,54.667-37,90-37c34.667,0,65,12.333,91,37l75,75C1662.667,767,1675,797.333,1675,832z"/>
</svg>
