<?xml version="1.0" encoding="utf-8"?>
<!-- Generator: Adobe Illustrator 21.0.2, SVG Export Plug-In . SVG Version: 6.00 Build 0)  -->
<svg version="1.1" id="Layer_1" xmlns="http://www.w3.org/2000/svg" xmlns:xlink="http://www.w3.org/1999/xlink" x="0px" y="0px"
	 viewBox="0 0 600 600" style="enable-background:new 0 0 600 600;" xml:space="preserve">
<style type="text/css">
	.st0{fill:#282828;}
	.st1{fill:#FFFFFF;}
</style>
<g>
	<circle class="st0" cx="300" cy="300" r="212.1"/>
	<path class="st1" d="M300,0C134.3,0,0,134.3,0,300s134.3,300,300,300s300-134.3,300-300S465.7,0,300,0z M405.6,62.8
		c48.8,0,88.5,39.7,88.5,88.5s-39.7,88.5-88.5,88.5s-88.5-39.7-88.5-88.5S356.8,62.8,405.6,62.8z M379.6,278.4
		c0,7.1-5.7,12.8-12.8,12.8s-12.8-5.7-12.8-12.8s5.7-12.8,12.8-12.8S379.6,271.4,379.6,278.4z M258.9,343.9
		c7.1,0,12.8,5.7,12.8,12.8c0,7.1-5.7,12.8-12.8,12.8c-7.1,0-12.8-5.7-12.8-12.8C246.1,349.7,251.8,343.9,258.9,343.9z M233.3,291.3
		c-7.1,0-12.8-5.7-12.8-12.8s5.7-12.8,12.8-12.8s12.8,5.7,12.8,12.8S240.3,291.3,233.3,291.3z M268.3,300
		c0-17.5,14.2-31.7,31.7-31.7c17.5,0,31.7,14.2,31.7,31.7c0,17.5-14.2,31.7-31.7,31.7C282.5,331.7,268.3,317.5,268.3,300z
		 M341.1,343.9c7.1,0,12.8,5.7,12.8,12.8c0,7.1-5.7,12.8-12.8,12.8c-7.1,0-12.8-5.7-12.8-12.8C328.2,349.7,334,343.9,341.1,343.9z
		 M300,217c7.1,0,12.8,5.7,12.8,12.8s-5.7,12.8-12.8,12.8c-7.1,0-12.8-5.7-12.8-12.8S292.9,217,300,217z M194.4,62.8
		c48.8,0,88.5,39.7,88.5,88.5s-39.7,88.5-88.5,88.5S106,200,106,151.3S145.6,62.8,194.4,62.8z M128.4,441.1
		c-48.8,0-88.5-39.7-88.5-88.5s39.7-88.5,88.5-88.5s88.5,39.7,88.5,88.5S177.2,441.1,128.4,441.1z M300,566.1
		c-48.8,0-88.5-39.7-88.5-88.5s39.7-88.5,88.5-88.5s88.5,39.7,88.5,88.5S348.8,566.1,300,566.1z M471.6,441.1
		c-48.8,0-88.5-39.7-88.5-88.5s39.7-88.5,88.5-88.5s88.5,39.7,88.5,88.5S520.4,441.1,471.6,441.1z"/>
</g>
</svg>
