<?xml version="1.0" encoding="utf-8"?>
<!-- Generator: Adobe Illustrator 21.0.2, SVG Export Plug-In . SVG Version: 6.00 Build 0)  -->
<svg version="1.1" id="Layer_1" xmlns="http://www.w3.org/2000/svg" xmlns:xlink="http://www.w3.org/1999/xlink" x="0px" y="0px"
	 viewBox="0 0 200 56" style="enable-background:new 0 0 200 56;" xml:space="preserve">
<style type="text/css">
	.st0{fill:#FF73B3;}
	.st1{fill:#FFFFFF;}
</style>
<g>
	<path class="st0" d="M172,56H28C12.5,56,0,43.5,0,28v0C0,12.5,12.5,0,28,0h144c15.5,0,28,12.5,28,28v0C200,43.5,187.5,56,172,56z"
		/>
</g>
<g>
	<path class="st1" d="M58,30.6c0,0.7,0.2,1.3,0.5,1.7c0.3,0.4,0.8,0.6,1.4,0.6c0.4,0,0.8-0.1,1-0.3c0.2-0.2,0.3-0.5,0.3-0.8
		c0-0.2,0-0.3-0.1-0.5s-0.2-0.3-0.5-0.4s-0.5-0.3-0.9-0.5c-0.4-0.2-0.9-0.4-1.6-0.7c-1-0.4-1.9-0.8-2.8-1.1s-1.7-0.8-2.3-1.4
		s-1.2-1.1-1.6-1.9s-0.6-1.6-0.6-2.7c0-1.2,0.3-2.1,0.8-2.9c0.5-0.8,1.2-1.4,2.1-1.9c0.9-0.5,1.8-0.8,2.9-1c1.1-0.2,2.2-0.3,3.3-0.3
		c1.8,0,3.3,0.2,4.4,0.7c1.1,0.4,2,1,2.7,1.7c0.6,0.7,1.1,1.4,1.3,2.2s0.4,1.6,0.4,2.3h-7.5c0-0.7-0.1-1.3-0.3-1.6
		c-0.2-0.3-0.6-0.5-1.2-0.5c-0.3,0-0.6,0.1-0.9,0.3c-0.3,0.2-0.4,0.5-0.4,0.9c0,0.4,0.2,0.7,0.6,1c0.4,0.3,1.1,0.6,2.2,1
		c0.9,0.3,1.9,0.7,2.8,1c0.9,0.4,1.7,0.8,2.4,1.3c0.7,0.5,1.3,1.2,1.7,1.9c0.4,0.7,0.7,1.7,0.7,2.8c0,2.1-0.8,3.8-2.3,5
		c-1.5,1.2-3.8,1.8-6.8,1.8c-2.9,0-5.2-0.7-6.8-2s-2.4-3.2-2.4-5.7H58z"/>
	<path class="st1" d="M74.9,23.4h-3.8v-6.3h15.1v6.3h-3.8v14.2h-7.5V23.4z"/>
	<path class="st1" d="M102.3,37.6l-0.6-2.3h-6.5l-0.6,2.3h-8.1l7.8-20.6h8.4l8.1,20.6H102.3z M98.4,23.5l-1.8,6.7h3.7L98.4,23.5z"/>
	<path class="st1" d="M114.1,17.1h11.1c1.2,0,2.3,0.2,3.3,0.6c1,0.4,1.8,1,2.5,1.7c0.7,0.7,1.2,1.6,1.6,2.5s0.6,2,0.6,3
		c0,1.4-0.3,2.6-0.9,3.8c-0.6,1.2-1.5,2.1-2.6,2.8l4.1,6h-8.9l-3.4-4.8v4.8h-7.5V17.1z M123.3,27.3c0.6,0,1.2-0.2,1.6-0.7
		s0.6-1,0.6-1.6c0-0.6-0.2-1.2-0.6-1.6c-0.4-0.5-0.9-0.7-1.5-0.7h-1.8v4.6H123.3z"/>
	<path class="st1" d="M139.6,23.4h-3.8v-6.3h15.1v6.3h-3.8v14.2h-7.5V23.4z"/>
</g>
</svg>
